<svg width="222" height="37" viewBox="0 0 222 37" fill="none" xmlns="http://www.w3.org/2000/svg">
<path d="M18 3.87005C14.4383 3.8702 10.9927 5.13772 8.27999 7.44582C5.56724 9.75392 3.76429 12.952 3.19374 16.4678C2.62319 19.9836 3.32227 23.5877 5.16589 26.6352C7.00951 29.6827 9.87737 31.9748 13.2563 33.1013C14.0063 33.2326 14.2876 32.7826 14.2876 32.3888C14.2876 32.0325 14.2688 30.8513 14.2688 29.595C10.5 30.2888 9.52504 28.6763 9.22504 27.8326C8.89216 27.012 8.36445 26.2848 7.68754 25.7138C7.16254 25.4325 6.41254 24.7388 7.66878 24.7201C8.14846 24.7721 8.60852 24.939 9.00999 25.2067C9.41145 25.4743 9.74249 25.8348 9.97504 26.2575C10.1802 26.6261 10.4561 26.9505 10.7868 27.2123C11.1176 27.474 11.4968 27.6679 11.9026 27.7829C12.3084 27.8979 12.733 27.9316 13.1519 27.8822C13.5708 27.8328 13.9758 27.7012 14.3438 27.495C14.4087 26.7325 14.7486 26.0195 15.3 25.4888C11.9625 25.1138 8.47504 23.82 8.47504 18.0826C8.45396 16.5918 9.00407 15.1495 10.0125 14.0513C9.55396 12.7557 9.60762 11.3338 10.1625 10.0763C10.1625 10.0763 11.4187 9.68258 14.2875 11.6138C16.742 10.9388 19.3331 10.9388 21.7875 11.6138C24.6563 9.66384 25.9125 10.0763 25.9125 10.0763C26.4675 11.3338 26.5212 12.7557 26.0625 14.0513C27.0741 15.1476 27.6246 16.5912 27.6 18.0826C27.6 23.8388 24.0938 25.1138 20.7563 25.4888C21.1143 25.8517 21.39 26.2873 21.5647 26.7661C21.7394 27.2449 21.809 27.7557 21.7688 28.2638C21.7688 30.2701 21.75 31.8826 21.75 32.3888C21.75 32.7826 22.0313 33.2513 22.7813 33.1013C26.1543 31.9656 29.0139 29.6682 30.8497 26.6191C32.6854 23.57 33.3779 19.9678 32.8034 16.4554C32.2289 12.943 30.4248 9.74911 27.7132 7.44381C25.0017 5.13852 21.5591 3.8719 18 3.87005Z" fill="#A3ABB2"/>
<path d="M95 9.2C93.8725 9.68914 92.6801 10.0125 91.46 10.16C92.7473 9.39098 93.7119 8.18118 94.175 6.755C92.9653 7.4751 91.6411 7.98245 90.26 8.255C89.3368 7.25386 88.1075 6.58745 86.7647 6.36028C85.422 6.13311 84.0418 6.35804 82.8407 6.99979C81.6396 7.64153 80.6854 8.6638 80.1279 9.90626C79.5703 11.1487 79.4409 12.5411 79.76 13.865C77.3141 13.7413 74.9217 13.1044 72.738 11.9958C70.5543 10.8872 68.6283 9.33154 67.085 7.43C66.5437 8.37525 66.2593 9.44574 66.26 10.535C66.2581 11.5466 66.5063 12.5429 66.9826 13.4353C67.4589 14.3278 68.1485 15.0886 68.99 15.65C68.012 15.6234 67.0548 15.3609 66.2 14.885V14.96C66.2073 16.3773 66.704 17.7486 67.606 18.8419C68.508 19.9353 69.7599 20.6835 71.15 20.96C70.6149 21.1229 70.0593 21.2087 69.5 21.215C69.1128 21.2105 68.7266 21.1754 68.345 21.11C68.7409 22.3292 69.5069 23.3947 70.5366 24.1582C71.5663 24.9218 72.8084 25.3453 74.09 25.37C71.9258 27.0729 69.2538 28.0023 66.5 28.01C65.9986 28.0116 65.4976 27.9816 65 27.92C67.8116 29.7354 71.0882 30.6991 74.435 30.695C76.7445 30.719 79.0357 30.2825 81.1747 29.4111C83.3136 28.5397 85.2575 27.2508 86.8928 25.6197C88.5281 23.9887 89.8219 22.0481 90.6988 19.9114C91.5757 17.7746 92.0181 15.4846 92 13.175C92 12.92 92 12.65 92 12.38C93.177 11.5022 94.1922 10.4261 95 9.2Z" fill="#A3ABB2"/>
<path d="M154.705 3.5H129.295C129.009 3.49603 128.726 3.54837 128.46 3.65402C128.195 3.75968 127.953 3.91658 127.748 4.11576C127.543 4.31495 127.38 4.55252 127.267 4.81491C127.154 5.0773 127.094 5.35936 127.09 5.645V31.355C127.094 31.6406 127.154 31.9227 127.267 32.1851C127.38 32.4475 127.543 32.685 127.748 32.8842C127.953 33.0834 128.195 33.2403 128.46 33.346C128.726 33.4516 129.009 33.504 129.295 33.5H154.705C154.991 33.504 155.274 33.4516 155.54 33.346C155.805 33.2403 156.047 33.0834 156.252 32.8842C156.457 32.685 156.62 32.4475 156.733 32.1851C156.846 31.9227 156.906 31.6406 156.91 31.355V5.645C156.906 5.35936 156.846 5.0773 156.733 4.81491C156.62 4.55252 156.457 4.31495 156.252 4.11576C156.047 3.91658 155.805 3.75968 155.54 3.65402C155.274 3.54837 154.991 3.49603 154.705 3.5ZM136.135 28.61H131.635V15.11H136.135V28.61ZM133.885 13.22C133.264 13.22 132.669 12.9735 132.23 12.5346C131.792 12.0958 131.545 11.5006 131.545 10.88C131.545 10.2594 131.792 9.6642 132.23 9.22537C132.669 8.78653 133.264 8.54 133.885 8.54C134.215 8.50262 134.548 8.53528 134.864 8.63582C135.18 8.73636 135.472 8.90253 135.719 9.12344C135.966 9.34435 136.164 9.61501 136.3 9.91772C136.435 10.2204 136.505 10.5483 136.505 10.88C136.505 11.2117 136.435 11.5396 136.3 11.8423C136.164 12.145 135.966 12.4156 135.719 12.6366C135.472 12.8575 135.18 13.0236 134.864 13.1242C134.548 13.2247 134.215 13.2574 133.885 13.22ZM152.365 28.61H147.865V21.365C147.865 19.55 147.22 18.365 145.585 18.365C145.079 18.3687 144.586 18.5274 144.173 18.8198C143.76 19.1121 143.447 19.524 143.275 20C143.158 20.3526 143.107 20.7239 143.125 21.095V28.595H138.625C138.625 28.595 138.625 16.325 138.625 15.095H143.125V17C143.534 16.2907 144.128 15.7063 144.845 15.3098C145.561 14.9133 146.372 14.7198 147.19 14.75C150.19 14.75 152.365 16.685 152.365 20.84V28.61Z" fill="#A3ABB2"/>
<path d="M220.5 15.065C220.574 12.918 220.105 10.787 219.135 8.87C218.477 8.0834 217.564 7.55256 216.555 7.37C212.381 6.99129 208.19 6.83607 204 6.905C199.825 6.83294 195.649 6.98315 191.49 7.355C190.668 7.50457 189.907 7.89026 189.3 8.465C187.95 9.71 187.8 11.84 187.65 13.64C187.432 16.8763 187.432 20.1237 187.65 23.36C187.693 24.3731 187.844 25.3787 188.1 26.36C188.281 27.1176 188.647 27.8185 189.165 28.4C189.776 29.0052 190.555 29.4128 191.4 29.57C194.634 29.9692 197.892 30.1346 201.15 30.065C206.4 30.14 211.005 30.065 216.45 29.645C217.316 29.4975 218.117 29.0893 218.745 28.475C219.165 28.0549 219.479 27.5406 219.66 26.975C220.196 25.3289 220.46 23.6062 220.44 21.875C220.5 21.035 220.5 15.965 220.5 15.065ZM200.61 22.775V13.49L209.49 18.155C207 19.535 203.715 21.095 200.61 22.775Z" fill="#A3ABB2"/>
</svg>
